#N canvas 509 471 892 998 10;
#X declare -path ../../../pantaliQa-core;
#X obj 72 48 loadbang;
#X msg 71 78 \; pd dsp 1;
#X msg 69 137 \; pd dsp 0;
#N canvas 785 385 761 674 new 0;
#X restore 521 67 pd new;
#X obj 252 179 netsend;
#X obj 271 132 r pyata;
#X msg 194 148 disconnect;
#X obj 394 103 bng 15 250 50 0 empty empty empty 17 7 0 10 -262144
-1 -1;
#X obj 252 56 loadbang;
#X msg 252 110 connect localhost 3001;
#X floatatom 252 201 5 0 0 0 - - -, f 5;
#X msg 271 155 send \$1 \$2;
#N canvas 1063 395 726 300 __import__ 0;
#X obj 58 38 declare -path ../../../pantaliQa-core;
#X restore 522 38 pd __import__;
#X obj 444 165 netreceive 3000;
#X obj 555 230 s pd-new;
#X text 390 148 receiving commands from python sockets;
#X text 578 69 here is where things happen in pd video engine;
#X obj 248 83 del 6000;
#X msg 665 114 set /q/screen/p1/fullscreen 1;
#X msg 663 89 set /q/screen/p1/size \$1;
#X floatatom 704 43 5 0 0 0 - - -, f 5;
#X obj 444 279 symbol;
#X msg 453 436 \; \$1 \$2;
#X obj 441 257 unpack s f;
#X obj 445 300 pack s f;
#X obj 503 360 symbol;
#X obj 500 338 unpack s s;
#X obj 504 381 pack s s;
#X obj 439 205 route set video init;
#X msg 449 591 \; pd-new vis 1;
#X obj 444 559 loadbang;
#X obj 234 344 print debugset;
#X connect 0 0 1 0;
#X connect 4 0 10 0;
#X connect 5 0 11 0;
#X connect 6 0 4 0;
#X connect 8 0 6 0;
#X connect 8 0 17 0;
#X connect 9 0 4 0;
#X connect 11 0 4 0;
#X connect 13 0 28 0;
#X connect 17 0 7 0;
#X connect 17 0 9 0;
#X connect 20 0 19 0;
#X connect 21 0 24 0;
#X connect 23 0 21 0;
#X connect 23 1 24 1;
#X connect 24 0 22 0;
#X connect 24 0 31 0;
#X connect 25 0 27 0;
#X connect 26 0 25 0;
#X connect 26 1 27 1;
#X connect 27 0 22 0;
#X connect 28 0 23 0;
#X connect 28 1 26 0;
#X connect 28 2 26 0;
#X connect 28 3 14 0;
#X connect 30 0 29 0;
